# xmcd CD database file
#
# Track frame offsets:
#	150
#	14677
#	27717
#	40207
#	57960
#	75985
#	95397
#	107615
#	126865
#	137735
#	150980
#	166097
#	178547
#	188455
#	200997
#	217652
#	233992
#
# Disc length: 3325 seconds
#
# Revision: 2
# Processed by: cddbd v1.5.2PL0 Copyright (c) Steve Scherf et al.
# Submitted via: CDex 1.51
#
DISCID=d90cfb11
DTITLE=鄧麗君 - 鄧麗君經典輯 (1/2)
DYEAR=1900
DGENRE=Blues
TTITLE0=海韻
TTITLE1=何日君再來
TTITLE2=南海姑娘
TTITLE3=愛情甜如蜜
TTITLE4=舊夢何處尋
TTITLE5=襟裳岬
TTITLE6=雨的旋律
TTITLE7=誰來愛我
TTITLE8=靜心等
TTITLE9=世界多美麗
TTITLE10=你在我心中
TTITLE11=愛的你呀！何處尋
TTITLE12=月下送君
TTITLE13=美夢中的情人
TTITLE14=淚的小雨
TTITLE15=香港之夜
TTITLE16=再見！我的情人
EXTD=
EXTT0=
EXTT1=
EXTT2=
EXTT3=
EXTT4=
EXTT5=
EXTT6=
EXTT7=
EXTT8=
EXTT9=
EXTT10=
EXTT11=
EXTT12=
EXTT13=
EXTT14=
EXTT15=
EXTT16=
PLAYORDER=
